<svg viewBox="0 0 128 128" xmlns="http://www.w3.org/2000/svg"><path fill="#546E7A" d="M120 16H8a8 8 0 00-8 8v80a8 8 0 008 8h112a8 8 0 008-8V24a8 8 0 00-8-8zm0 88H8V24h112v80z"/><path fill="#FFA000" d="M32 40c4.422 0 8 3.578 8 8s-3.578 8-8 8-8-3.578-8-8 3.578-8 8-8m0-8c-8.824 0-16 7.176-16 16s7.176 16 16 16 16-7.176 16-16-7.176-16-16-16z"/><path fill="#B0BEC5" d="M28 96a3.988 3.988 0 01-2.828-1.172 3.997 3.997 0 010-5.656l24-24a4.002 4.002 0 014.617-.75l13.016 6.508 21.996-29.328A4.029 4.029 0 0192.11 40c1.301.039 2.5.699 3.219 1.781l16 24a3.998 3.998 0 01-1.109 5.547c-1.844 1.215-4.328.727-5.547-1.109L91.809 50.922l-20.61 27.476a3.99 3.99 0 01-4.988 1.18l-13.422-6.711-21.961 21.961A3.988 3.988 0 0128 96z"/></svg>
